<svg width="242" height="43" viewBox="0 0 242 43" fill="none" xmlns="http://www.w3.org/2000/svg">
<path d="M5.59989 41.4174L5.33615 41.1553C5.0724 41.0242 4.80866 40.7621 4.80866 39.4514V31.7184H6.12738C14.3034 31.7184 18.7871 28.8349 18.7871 23.7233C18.7871 18.6116 14.3034 15.7281 6.12738 15.7281H0.0612793V16.7767L0.325023 16.9078C0.720638 17.0388 0.984381 17.301 0.984381 18.6116V39.4514C0.984381 40.7621 0.720638 41.0242 0.325023 41.1553L0.0612793 41.2863V42.3349H5.59989V41.4174ZM6.12738 30.4077H4.80866V16.9078H6.12738C11.9297 16.9078 14.8309 19.1359 14.8309 23.5922C14.8309 28.1796 11.9297 30.4077 6.12738 30.4077Z" fill="white" fill-opacity="0.79"/>
<path d="M43.9746 33.2912V20.5777C43.9746 19.1359 44.3702 17.432 45.2933 16.9078L45.5571 16.7767V15.7281H40.0185V16.9078H40.4141C41.9965 17.1699 42.7878 19.1359 42.7878 20.9709V33.2912C42.7878 36.9611 40.4141 40.8931 35.9304 41.1553C33.6886 41.2863 31.8424 40.7621 30.5237 39.5825C28.8094 38.0096 28.0181 35.5194 28.0181 32.3737V18.6116C28.0181 17.301 28.2819 17.0388 28.5456 16.9078L28.8094 16.7767V15.7281H23.2708V16.7767L23.5345 16.9078C23.9301 17.0388 24.1939 17.301 24.1939 18.6116V32.3737C24.1939 39.9757 29.7325 42.597 34.8755 42.597C40.0185 42.597 43.9746 38.665 43.9746 33.2912Z" fill="white" fill-opacity="0.79"/>
<path d="M65.0741 41.4174V42.3349H71.7996V41.4174L71.6677 41.2863C70.349 40.1067 69.1621 38.9271 66.9203 35.1262L63.8873 29.8835C67.8434 28.8349 70.0852 26.3446 70.0852 23.199C70.0852 18.7427 65.6016 15.7281 58.7443 15.7281H51.0957V16.7767L51.3594 16.9078C51.6232 17.0388 51.8869 17.301 51.8869 18.6116V39.4514C51.8869 40.7621 51.6232 41.0242 51.3594 41.1553L51.0957 41.2863V42.3349H56.6343V41.2863L56.3706 41.1553C56.1068 41.0242 55.8431 40.7621 55.8431 39.4514V30.5388H58.7443C59.1399 30.5388 59.6674 30.5388 60.1948 30.5388L64.0191 37.2232C65.4697 39.7135 65.9972 40.631 65.3378 41.2863L65.0741 41.4174ZM55.7112 16.9078H58.6124C65.3378 16.9078 66.1291 20.4466 66.1291 23.0679C66.1291 27.131 63.6235 29.2281 58.6124 29.2281H55.7112V16.9078Z" fill="white" fill-opacity="0.79"/>
<path d="M92.1078 36.5679L91.8441 36.9611C90.921 38.2718 88.1517 41.1553 83.4043 41.1553H80.8987V28.1796L90.2616 28.966V26.0825L80.8987 26.8689V17.0388H83.0087C86.833 17.0388 88.9429 18.8738 90.7891 20.8398L91.0529 21.233L91.8441 20.5777L90.921 15.7281H76.1514V16.7767L76.4151 16.9078C76.6789 17.0388 76.9426 17.301 76.9426 18.6116V39.4514C76.9426 40.7621 76.6789 41.0242 76.4151 41.1553L76.1514 41.2863V42.3349H92.1078L93.0309 37.2232L92.1078 36.5679Z" fill="white" fill-opacity="0.79"/>
<path d="M101.339 42.597C102.657 42.597 103.844 41.4174 103.844 40.1067C103.844 38.7961 102.789 37.6165 101.339 37.6165C99.8881 37.6165 98.8331 38.665 98.8331 40.1067C98.8331 41.4174 100.02 42.597 101.339 42.597Z" fill="white" fill-opacity="0.79"/>
<path d="M120.856 26.3446C117.295 25.0339 114.13 23.8543 114.394 20.7086C114.526 18.8737 116.372 16.9077 119.933 16.9077C122.966 16.9077 125.339 19.1358 127.186 23.4611L127.317 23.7232H128.24L129.559 19.2669L129.295 19.0048C127.581 17.6941 124.152 15.4659 120.856 15.4659C114.79 15.4659 112.02 19.1358 112.02 22.6747C112.02 27.7863 116.504 29.4902 120.46 31.063C124.152 32.5047 127.317 33.6843 126.922 37.2232C126.658 39.3202 124.152 41.1552 121.383 41.1552C115.713 41.1552 112.68 36.4368 111.625 34.3397L111.493 34.0775H110.57L109.251 38.927L109.515 39.1892C112.548 41.5484 115.449 42.9901 119.801 42.9901C125.471 42.9901 129.559 39.5824 129.559 34.995C129.559 29.6212 124.944 27.9174 120.856 26.3446Z" fill="white" fill-opacity="0.79"/>
<path d="M134.966 16.9077L135.23 17.0388C135.493 17.1699 135.757 17.432 135.757 18.7427V39.5824C135.757 40.8931 135.493 41.1552 135.23 41.2863L134.966 41.4174V42.4659H140.504V41.4174L140.241 41.2863C139.977 41.1552 139.581 40.8931 139.581 39.5824V18.7427C139.581 17.432 139.845 17.1699 140.241 17.0388L140.504 16.9077V15.8592H134.966V16.9077Z" fill="white" fill-opacity="0.79"/>
<path d="M170.571 15.597L170.439 15.8592H170.043L160.812 31.7183L150.526 15.8592H145.911L148.021 18.7426V37.6164C148.021 38.9271 146.966 40.762 145.911 41.2863L145.647 41.4173V42.4659H151.581V41.4173L151.318 41.2863C150.263 40.762 149.208 38.9271 149.208 37.6164V20.5776L158.966 35.3882H159.889L169.252 19.1358V39.4513C169.252 40.762 168.988 41.0241 168.593 41.1552L168.329 41.2863V42.3348H173.868V41.2863L173.604 41.1552C173.34 41.0241 172.945 40.762 172.945 39.4513V18.7426C172.945 17.432 173.208 17.1698 173.604 17.0388L173.868 16.9077V15.8592H170.175V15.597H170.571Z" fill="white" fill-opacity="0.79"/>
<path d="M186.396 15.8592H180.33V16.9077L180.594 17.0388C180.857 17.1699 181.253 17.432 181.253 18.7427V39.5824C181.253 40.8931 180.989 41.1552 180.594 41.2863L180.33 41.4174V42.4659H185.868V41.4174L185.605 41.2863C185.341 41.1552 185.077 40.8931 185.077 39.5824V31.8494H186.396C194.572 31.8494 199.056 28.966 199.056 23.8543C199.056 18.6116 194.572 15.8592 186.396 15.8592ZM185.077 17.0388H186.396C192.198 17.0388 195.099 19.267 195.099 23.8543C195.099 28.3106 192.198 30.5388 186.396 30.5388H185.077V17.0388Z" fill="white" fill-opacity="0.79"/>
<path d="M219.496 37.0921C218.573 38.4028 215.804 41.2863 211.057 41.2863H208.155V18.7427C208.155 17.432 208.419 17.1699 208.683 17.0388L208.947 16.9077V15.8592H203.408V16.9077L203.672 17.0388C204.067 17.1699 204.331 17.432 204.331 18.7427V39.5824C204.331 40.8931 204.067 41.1552 203.672 41.2863L203.408 41.4174V42.4659H219.76L220.683 37.3543L219.76 36.83L219.496 37.0921Z" fill="white" fill-opacity="0.79"/>
<path d="M240.859 36.83L240.595 37.2232C239.672 38.5339 236.903 41.4174 232.155 41.4174H229.65V28.4417L239.013 29.2281V26.3446L229.65 27.131V17.0388H231.76C235.584 17.0388 237.694 18.8737 239.54 20.8398L239.804 21.233L240.595 20.5776L239.672 15.8592H224.902V16.9077L225.166 17.0388C225.43 17.1699 225.694 17.432 225.694 18.7427V39.5824C225.694 40.8931 225.43 41.1552 225.166 41.2863L224.902 41.4174V42.4659H240.859L241.782 37.3543L240.859 36.83Z" fill="white" fill-opacity="0.79"/>
<path d="M42.6564 1.44174L40.6783 0L33.9529 8.9126L36.0628 10.3543L42.6564 1.44174Z" fill="white" fill-opacity="0.79"/>
</svg>
