<svg width="20" height="22" viewBox="0 0 20 22" fill="none" xmlns="http://www.w3.org/2000/svg">
<path d="M10.5994 12.6978C13.9184 12.6978 15.8923 14.1713 17.1124 15.927C18.3628 17.7264 18.8359 19.8537 19.0091 21.0856C19.01 21.0924 19.0099 21.0965 19.0097 21.0982C19.0096 21.0991 19.0095 21.0998 19.0094 21.1003C19.0093 21.1008 19.0092 21.1012 19.0091 21.1014C19.0089 21.1022 19.0077 21.1056 19.0027 21.111C18.9927 21.1218 18.9669 21.1401 18.9198 21.1401H2.01499C1.96654 21.1401 1.94066 21.1211 1.93092 21.1102C1.92609 21.1049 1.92507 21.1016 1.92492 21.1011C1.92481 21.1007 1.92457 21.0998 1.92446 21.098C1.92436 21.0963 1.92427 21.0921 1.92552 21.0848C2.13814 19.8445 2.67821 17.7192 3.98562 15.9224C5.26473 14.1645 7.28871 12.6978 10.5994 12.6978Z" stroke="white" stroke-opacity="0.79" stroke-width="1.7" stroke-linejoin="round"/>
<circle cx="10.4521" cy="5.85394" r="4.17807" stroke="white" stroke-opacity="0.79" stroke-width="1.7"/>
</svg>
