<svg width="21" height="23" viewBox="0 0 21 23" fill="none" xmlns="http://www.w3.org/2000/svg">
<path d="M19.9932 20.4164L18.7337 7.66966C18.6596 6.91908 17.9748 6.35303 17.1409 6.35303H13.8999V3.92035C13.8999 2.2143 12.3639 0.826294 10.4759 0.826294C8.58793 0.826294 7.05199 2.21426 7.05199 3.92035V6.35307H3.81103C2.97714 6.35307 2.29233 6.91908 2.21814 7.6697L0.958796 20.4164C0.917765 20.8313 1.06053 21.213 1.37162 21.5204C1.68272 21.8277 2.09074 21.9901 2.55165 21.9901H18.4003C18.8612 21.9901 19.2692 21.8277 19.5804 21.5204C19.8914 21.2131 20.0342 20.8313 19.9932 20.4164ZM7.78392 3.92035C7.78392 2.57897 8.99157 1.48766 10.476 1.48766C11.9604 1.48766 13.168 2.57892 13.168 3.92035V6.35307H7.78392V3.92035ZM19.0404 21.074C18.8668 21.2454 18.6574 21.3287 18.4003 21.3287H2.55165C2.29453 21.3287 2.08516 21.2454 1.91166 21.074C1.73811 20.9026 1.66483 20.7067 1.68775 20.4753L2.94714 7.72852C2.98739 7.3214 3.35877 7.01444 3.81108 7.01444H17.1408C17.5931 7.01444 17.9645 7.32144 18.0048 7.72852L19.2642 20.4753C19.287 20.7067 19.2139 20.9026 19.0404 21.074Z" fill="white" fill-opacity="0.79"/>
<path d="M17.1409 6.08426H14.1687V3.92035C14.1687 2.04089 12.4861 0.557522 10.4759 0.557522C8.46576 0.557522 6.78322 2.04085 6.78322 3.92035V6.0843H3.81103C2.86145 6.0843 2.04056 6.73382 1.95067 7.64326L1.95067 7.64327L0.691329 20.39C0.641875 20.8899 0.817216 21.3505 1.18273 21.7116C1.54707 22.0715 2.02426 22.2589 2.55165 22.2589H18.4003C18.9277 22.2589 19.4049 22.0715 19.7693 21.7116L19.7693 21.7116C20.1347 21.3505 20.31 20.89 20.2606 20.39L19.9932 20.4164L20.2606 20.39L19.0012 7.64323C18.9114 6.73382 18.0905 6.08426 17.1409 6.08426ZM2.10056 20.8828L2.10054 20.8828C1.9814 20.7651 1.94074 20.648 1.95521 20.5018L1.95522 20.5017L3.2146 7.75496C3.21461 7.75496 3.21461 7.75495 3.21461 7.75494C3.23917 7.50666 3.47448 7.28322 3.81108 7.28322H17.1408C17.4774 7.28322 17.7128 7.5067 17.7373 7.75497L18.9967 20.5017C19.0112 20.6481 18.9705 20.7651 18.8515 20.8828C18.7312 21.0016 18.591 21.06 18.4003 21.06H2.55165C2.36099 21.06 2.2208 21.0016 2.10056 20.8828ZM8.05269 3.92035C8.05269 2.75237 9.11374 1.75644 10.476 1.75644C11.8382 1.75644 12.8992 2.75233 12.8992 3.92035V6.0843H8.05269V3.92035Z" stroke="white" stroke-opacity="0.79" stroke-width="0.537545"/>
</svg>
