<svg width="35" height="35" viewBox="0 0 35 35" fill="none" xmlns="http://www.w3.org/2000/svg">
<circle cx="17.861" cy="17.6812" r="17" fill="black"/>
<path fill-rule="evenodd" clip-rule="evenodd" d="M14.8956 11.75C13.2578 11.75 11.9302 13.0777 11.9302 14.7154V20.6463C11.9302 22.284 13.2578 23.6117 14.8956 23.6117H20.8264C22.4642 23.6117 23.7919 22.284 23.7919 20.6463V14.7154C23.7919 13.0777 22.4642 11.75 20.8264 11.75H14.8956ZM17.861 15.5242C16.6699 15.5242 15.7043 16.4897 15.7043 17.6808C15.7043 18.8719 16.6699 19.8375 17.861 19.8375C19.0521 19.8375 20.0177 18.8719 20.0177 17.6808C20.0177 16.4897 19.0521 15.5242 17.861 15.5242ZM14.626 17.6808C14.626 15.8942 16.0744 14.4458 17.861 14.4458C19.6477 14.4458 21.096 15.8942 21.096 17.6808C21.096 19.4675 19.6477 20.9158 17.861 20.9158C16.0744 20.9158 14.626 19.4675 14.626 17.6808ZM21.096 13.3675C20.5005 13.3675 20.0177 13.8503 20.0177 14.4458C20.0177 15.0414 20.5005 15.5242 21.096 15.5242C21.6916 15.5242 22.1744 15.0414 22.1744 14.4458C22.1744 13.8503 21.6916 13.3675 21.096 13.3675Z" fill="white"/>
</svg>
