<svg width="23" height="18" viewBox="0 0 23 18" fill="none" xmlns="http://www.w3.org/2000/svg">
<path d="M12.3833 1.65156L11.1682 2.85542L9.95316 1.65147C7.71719 -0.563544 4.07932 -0.563721 1.84335 1.65147C-0.392444 3.86657 -0.392444 7.47082 1.84335 9.68592L9.56071 17.3316C10.0039 17.7706 10.5861 17.9901 11.1681 17.9901C11.7504 17.9901 12.3324 17.7706 12.7757 17.3316L20.493 9.68592C21.5721 8.61676 22.1665 7.19007 22.1665 5.66869C22.1665 4.14732 21.5722 2.72072 20.4929 1.65156C18.2571 -0.563543 14.6193 -0.563632 12.3833 1.65156ZM19.4817 8.68381L11.7643 16.3295C11.4357 16.6552 10.9008 16.6552 10.5721 16.3295L2.85486 8.68381C1.17672 7.02135 1.17672 4.31613 2.85486 2.65341C4.53291 0.990864 7.2635 0.990864 8.94173 2.65341L10.6625 4.35829C10.7967 4.49122 10.9785 4.56588 11.1682 4.56588C11.3579 4.56588 11.5398 4.49122 11.6739 4.35829L13.3946 2.6535C15.0728 0.990862 17.8035 0.990951 19.4817 2.6535C21.1599 4.31604 21.1599 7.02126 19.4817 8.68381Z" fill="white" fill-opacity="0.79"/>
</svg>
