<svg width="22" height="22" viewBox="0 0 22 22" fill="none" xmlns="http://www.w3.org/2000/svg">
<path d="M20.6486 19.8723L15.3439 14.6523C16.733 13.1431 17.5866 11.147 17.5866 8.9506C17.5859 4.25205 13.7158 0.443665 8.9415 0.443665C4.16718 0.443665 0.297119 4.25205 0.297119 8.9506C0.297119 13.6492 4.16718 17.4575 8.9415 17.4575C11.0043 17.4575 12.8963 16.744 14.3825 15.5578L19.7078 20.7984C19.9673 21.054 20.3885 21.054 20.648 20.7984C20.9081 20.5428 20.9081 20.1279 20.6486 19.8723ZM8.9415 16.1487C4.9019 16.1487 1.62718 12.926 1.62718 8.9506C1.62718 4.97519 4.9019 1.75251 8.9415 1.75251C12.9811 1.75251 16.2558 4.97519 16.2558 8.9506C16.2558 12.926 12.9811 16.1487 8.9415 16.1487Z" fill="white"/>
<path d="M20.7539 19.7655L20.7538 19.7654L15.5516 14.6463C16.9072 13.1243 17.7366 11.135 17.7366 8.9506C17.7359 4.16695 13.7964 0.293665 8.9415 0.293665C4.08661 0.293665 0.147119 4.16695 0.147119 8.9506C0.147119 13.7343 4.08661 17.6075 8.9415 17.6075C10.9914 17.6075 12.8759 16.9147 14.3714 15.7573L19.6025 20.9053C19.9204 21.2184 20.4354 21.2184 20.7533 20.9053C21.073 20.5909 21.073 20.0798 20.7539 19.7655ZM8.9415 15.9987C4.98247 15.9987 1.77718 12.8409 1.77718 8.9506C1.77718 5.06029 4.98247 1.90251 8.9415 1.90251C12.9006 1.90251 16.1058 5.06029 16.1058 8.9506C16.1058 12.8409 12.9006 15.9987 8.9415 15.9987Z" stroke="black" stroke-opacity="0.79" stroke-width="0.3"/>
</svg>
